<svg width="49" height="48" viewBox="0 0 49 48" fill="none" xmlns="http://www.w3.org/2000/svg">
    <path d="M24.1587 0.000366211C48.3177 0.000366211 48.3179 0.000366211 48.3179 24.0004C48.3179 48 48.3175 48.0004 24.1587 48.0004C0.00016981 48.0004 0.000488282 47.9998 0.000488281 24.0004C0.000488281 0.000476378 3.51425e-05 0.000366211 24.1587 0.000366211ZM35.7925 16.4506C36.1955 14.8347 35.1763 14.1014 34.1206 14.5804L11.0024 23.4955C9.42463 24.1284 9.43349 25.0084 10.7144 25.4008L16.647 27.2523L30.3823 18.5873C31.0306 18.1943 31.6255 18.4058 31.1372 18.8392L20.0083 28.8822L19.6001 35.0004C20.2001 35.0003 20.4654 34.7254 20.8003 34.3998L23.6831 31.597L29.6802 36.0277C30.7838 36.6366 31.58 36.3214 31.855 35.0033L35.7925 16.4506Z"
          fill="currentColor" />
</svg>
